<svg preserveAspectRatio="none" width="100%" height="100%" overflow="visible" style="display: block;" viewBox="0 0 20 20" fill="none" xmlns="http://www.w3.org/2000/svg">
<g id="ai-magic">
<path id="Vector" fill-rule="evenodd" clip-rule="evenodd" d="M8.9195 5.61643C8.82875 5.37117 8.59483 5.20833 8.33333 5.20833C8.07181 5.20833 7.83793 5.37117 7.74717 5.61643L7.3173 6.77815C6.73378 8.35508 6.49665 8.95742 6.06037 9.39375C5.62411 9.83 5.02177 10.0671 3.44482 10.6507L2.2831 11.0805C2.03783 11.1713 1.875 11.4052 1.875 11.6667C1.875 11.9282 2.03783 12.1621 2.2831 12.2528L3.44482 12.6827C5.02177 13.2662 5.62411 13.5033 6.06037 13.9396C6.49665 14.3759 6.73378 14.9782 7.31731 16.5552L7.74717 17.7169C7.83793 17.9622 8.07181 18.125 8.33333 18.125C8.59483 18.125 8.82875 17.9622 8.9195 17.7169L9.34933 16.5552C9.93292 14.9782 10.17 14.3759 10.6062 13.9396C11.0426 13.5033 11.6449 13.2662 13.2218 12.6827L14.3836 12.2528C14.6288 12.1621 14.7917 11.9282 14.7917 11.6667C14.7917 11.4052 14.6288 11.1713 14.3836 11.0805L13.2218 10.6507C11.6449 10.0671 11.0426 9.83 10.6062 9.39375C10.17 8.95742 9.93292 8.35508 9.34933 6.77815L8.9195 5.61643ZM15.5862 2.2831C15.4954 2.03783 15.2615 1.875 15 1.875C14.7385 1.875 14.5046 2.03783 14.4138 2.2831L14.2296 2.78097C13.9682 3.48746 13.8921 3.65457 13.7733 3.77333C13.6546 3.89211 13.4874 3.96819 12.781 4.22961L12.2831 4.41384C12.0378 4.5046 11.875 4.73847 11.875 5C11.875 5.26152 12.0378 5.4954 12.2831 5.58616L12.781 5.77039C13.4875 6.03181 13.6546 6.10789 13.7733 6.22667C13.8921 6.34543 13.9682 6.51254 14.2296 7.21902L14.4138 7.7169C14.5046 7.96217 14.7385 8.125 15 8.125C15.2615 8.125 15.4954 7.96217 15.5862 7.7169L15.7704 7.21903C16.0318 6.51254 16.1079 6.34543 16.2267 6.22666C16.3454 6.10789 16.5126 6.03181 17.219 5.77039L17.7169 5.58616C17.9622 5.4954 18.125 5.26152 18.125 5C18.125 4.73847 17.9622 4.5046 17.7169 4.41384L17.219 4.22961C16.5126 3.96819 16.3454 3.89211 16.2267 3.77333C16.1079 3.65457 16.0318 3.48746 15.7704 2.78097L15.5862 2.2831Z" fill="var(--fill-0, #2E4898)"/>
</g>
</svg>
