<svg preserveAspectRatio="none" width="100%" height="100%" overflow="visible" style="display: block;" viewBox="0 0 18 18" fill="none" xmlns="http://www.w3.org/2000/svg">
<g id="ai-content-generator-01">
<path id="Vector" d="M8.25 15.75H7.5C4.67157 15.75 3.25736 15.75 2.37868 14.8713C1.5 13.9927 1.5 12.5784 1.5 9.75V7.5C1.5 4.67157 1.5 3.25736 2.37868 2.37868C3.25736 1.5 4.67157 1.5 7.5 1.5H9C11.8284 1.5 13.2427 1.5 14.1213 2.37868C15 3.25736 15 4.67157 15 7.5V7.875" stroke="var(--stroke-0, #2E4898)" stroke-width="1.125" stroke-linecap="round" stroke-linejoin="round"/>
<path id="Vector_2" d="M13.0552 10.8027C13.2144 10.3991 13.7856 10.3991 13.9448 10.8027L13.9723 10.8727C14.3611 11.8585 15.1415 12.6388 16.1273 13.0276L16.1973 13.0552C16.6009 13.2144 16.6009 13.7856 16.1973 13.9448L16.1273 13.9723C15.1415 14.3611 14.3611 15.1415 13.9723 16.1273L13.9448 16.1973C13.7856 16.6009 13.2144 16.6009 13.0552 16.1973L13.0276 16.1273C12.6388 15.1415 11.8585 14.3611 10.8727 13.9723L10.8027 13.9448C10.3991 13.7856 10.3991 13.2144 10.8027 13.0552L10.8727 13.0276C11.8585 12.6388 12.6388 11.8585 13.0276 10.8727L13.0552 10.8027Z" stroke="var(--stroke-0, #2E4898)" stroke-width="1.125" stroke-linecap="round" stroke-linejoin="round"/>
<path id="Vector_3" d="M5.25 5.25H11.25M5.25 8.625H11.25M5.25 12H8.25" stroke="var(--stroke-0, #2E4898)" stroke-width="1.125" stroke-linecap="round" stroke-linejoin="round"/>
</g>
</svg>
