<svg preserveAspectRatio="none" width="100%" height="100%" overflow="visible" style="display: block;" viewBox="0 0 13.2 14.5334" fill="none" xmlns="http://www.w3.org/2000/svg">
<g id="elements">
<path id="Vector" d="M7.26667 0.6H7.44848C9.62262 0.6 10.7097 0.6 11.4646 1.13189C11.6809 1.28429 11.8729 1.46502 12.0349 1.66859C12.6 2.37911 12.6 3.40224 12.6 5.44849V7.14545C12.6 9.1209 12.6 10.1086 12.2874 10.8975C11.7848 12.1657 10.7219 13.1661 9.37443 13.6391C8.53625 13.9333 7.48679 13.9333 5.38788 13.9333C4.1885 13.9333 3.58881 13.9333 3.10985 13.7652C2.33986 13.4949 1.7325 12.9233 1.44531 12.1986C1.26667 11.7478 1.26667 11.1834 1.26667 10.0545V7.26667" stroke="var(--stroke-0, #707070)" stroke-width="1.2" stroke-linecap="round" stroke-linejoin="round"/>
<path id="Vector_2" d="M12.6 7.26667C12.6 8.49397 11.6051 9.48889 10.3778 9.48889C9.93392 9.48889 9.41064 9.41112 8.97909 9.52675C8.59565 9.62949 8.29616 9.92899 8.19342 10.3124C8.07778 10.744 8.15556 11.2673 8.15556 11.7111C8.15556 12.9384 7.16063 13.9333 5.93333 13.9333" stroke="var(--stroke-0, #707070)" stroke-width="1.2" stroke-linecap="round" stroke-linejoin="round"/>
<path id="Vector_3" d="M5.93333 3.26667L0.6 3.26667M3.26667 0.6V5.93333" stroke="var(--stroke-0, #707070)" stroke-width="1.2" stroke-linecap="round"/>
</g>
</svg>
