<svg preserveAspectRatio="none" width="100%" height="100%" overflow="visible" style="display: block;" viewBox="0 0 18 18" fill="none" xmlns="http://www.w3.org/2000/svg">
<g id="cursor-magic-selection-04">
<path id="Vector" d="M9.50175 6.26858L13.2727 7.7442C15.4477 8.5953 16.5352 9.02077 16.4991 9.69585C16.4631 10.3708 15.3281 10.6804 13.0583 11.2994C12.3824 11.4838 12.0445 11.5759 11.8102 11.8102C11.5759 12.0445 11.4838 12.3824 11.2994 13.0583C10.6804 15.3281 10.3708 16.4631 9.69585 16.4991C9.02077 16.5352 8.5953 15.4477 7.7442 13.2727L6.26858 9.50175C5.37753 7.22459 4.93201 6.08602 5.50901 5.50901C6.08602 4.93201 7.22459 5.37753 9.50175 6.26858Z" stroke="var(--stroke-0, #8796AF)" stroke-width="1.125" stroke-linejoin="round"/>
<path id="Vector_2" d="M6.75 3V1.5M3.75 3.75L2.625 2.625M3 6.75H1.5M3.75 9.75L2.625 10.875M10.875 2.625L9.75 3.75" stroke="var(--stroke-0, #8796AF)" stroke-width="1.125" stroke-linecap="round" stroke-linejoin="round"/>
</g>
</svg>
