<svg preserveAspectRatio="none" width="100%" height="100%" overflow="visible" style="display: block;" viewBox="0 0 101.203 18.7916" fill="none" xmlns="http://www.w3.org/2000/svg">
<g id="logotype">
<path id="Vector" d="M24.2016 15.266C24.7665 16.3234 25.8566 16.9892 27.2619 16.9892C28.6671 16.9891 29.7569 16.3233 30.3219 15.266H32.4354C31.7365 17.3789 29.7954 18.7915 27.2619 18.7916C24.7283 18.7916 22.7871 17.3789 22.0878 15.266H24.2016ZM54.9854 4.05588C58.2063 4.05588 60.4633 6.26808 60.4633 9.44298C60.4633 12.8023 57.9599 14.7076 55.3135 14.7076C53.673 14.7076 52.2777 13.97 51.5391 12.6592V18.7629H49.5904V9.4635C49.5904 6.16566 51.8468 4.05588 54.9854 4.05588ZM55.0064 5.85822C52.9345 5.85822 51.5391 7.3332 51.5391 9.38142C51.5391 11.4298 52.9345 12.9047 55.0064 12.9047C57.0988 12.9047 58.4935 11.4298 58.4935 9.38142C58.4935 7.33314 57.0988 5.85822 55.0064 5.85822ZM15.6591 4.05588C18.8593 4.05588 21.1159 6.309 21.116 9.38142C21.116 12.454 18.8594 14.7076 15.6591 14.7076C12.4588 14.7076 10.2021 12.454 10.2021 9.38142C10.2022 6.309 12.4588 4.05588 15.6591 4.05588ZM15.6591 5.85822C13.5666 5.85822 12.1716 7.33314 12.1715 9.38142C12.1715 11.4298 13.5666 12.9047 15.6591 12.9047C17.7516 12.9047 19.1466 11.4298 19.1466 9.38142C19.1466 7.33314 17.7515 5.85822 15.6591 5.85822ZM27.4779 4.06056H32.7785V5.8008H31.412C32.2401 6.72792 32.719 7.96758 32.719 9.38142C32.719 12.4539 30.4619 14.7075 27.2619 14.7076C24.0616 14.7076 21.8049 12.454 21.8049 9.38142C21.8051 6.309 24.0616 4.05588 27.2619 4.05588C27.3344 4.05588 27.4064 4.05828 27.4779 4.06056ZM27.2619 5.85822C25.1695 5.85822 23.7745 7.33314 23.7744 9.38142C23.7744 11.4298 25.1694 12.9047 27.2619 12.9047C29.3543 12.9046 30.7486 11.4297 30.7486 9.38142C30.7486 7.33326 29.3542 5.85834 27.2619 5.85822ZM38.864 4.05588C42.0645 4.05588 44.3209 6.309 44.3209 9.38142C44.3209 12.454 42.0645 14.7076 38.864 14.7076C35.6641 14.7076 33.407 12.454 33.407 9.38142C33.407 6.309 35.6641 4.05588 38.864 4.05588ZM38.864 5.85822C36.7716 5.85822 35.3769 7.33314 35.3769 9.38142C35.3769 11.4298 36.7716 12.9047 38.864 12.9047C40.957 12.9047 42.3517 11.4298 42.3517 9.38142C42.3517 7.33314 40.9564 5.85822 38.864 5.85822ZM65.3897 4.05588C67.8108 4.05594 69.3083 5.4285 69.3491 7.16952H67.4202C67.3589 6.3912 66.6414 5.81724 65.4107 5.81718C64.1181 5.81718 63.3796 6.43218 63.3796 7.23108C63.3796 8.19354 64.4462 8.2959 65.6973 8.45976C67.4616 8.68506 69.6153 9.0129 69.6159 11.3273C69.6159 13.3756 67.9544 14.7075 65.4107 14.7076C62.8664 14.7076 61.2662 13.3554 61.2049 11.5119H63.1741C63.215 12.3517 63.9949 12.9457 65.4107 12.9457C66.8872 12.9456 67.6461 12.3107 67.6461 11.5119C67.6461 10.5492 66.5795 10.426 65.308 10.2621C63.5437 10.0368 61.4098 9.7092 61.4098 7.39452C61.4098 5.40768 62.9692 4.05588 65.3897 4.05588ZM72.701 9.60642C72.701 11.7982 73.9119 12.9047 75.7579 12.9047C77.6045 12.9047 78.8148 11.7982 78.8148 9.60642V4.32186H80.7635V9.60642C80.7635 12.9658 78.7535 14.707 75.7579 14.707C72.7629 14.707 70.7523 12.9862 70.7523 9.60642V4.32186H72.701V9.60642ZM2.09263 12.5156H9.62171V14.441H0V1.04473H2.09263V12.5156ZM47.7383 14.441H45.7896V4.32186H47.7383V14.441ZM93.5991 4.05588C95.9788 4.05588 97.7845 5.48982 97.7845 8.58282V14.441H95.8352V8.58282C95.8352 6.69846 94.8304 5.85828 93.4147 5.85822C92.0404 5.85822 91.014 6.73926 91.014 8.58282V14.441H89.0652V8.58282C89.0652 6.73926 88.019 5.85822 86.6447 5.85822C85.229 5.85822 84.2236 6.6984 84.2236 8.58282V14.441H82.2749V8.58282C82.2749 5.48982 84.0806 4.05588 86.4602 4.05588C88.019 4.05594 89.332 4.75242 90.0291 6.0633C90.7268 4.75236 92.0193 4.05588 93.5991 4.05588ZM46.7534 0C47.5328 0 48.1079 0.573462 48.1079 1.35176C48.1079 2.13012 47.5334 2.7246 46.7534 2.7246C45.974 2.72454 45.3996 2.13006 45.3996 1.35176C45.3996 0.573516 45.974 7.8e-05 46.7534 0ZM99.4004 0.6C99.7537 0.6 100.058 1.00544 100.206 1.59551C100.797 1.74317 101.203 2.04744 101.203 2.4C101.203 2.7525 100.797 3.05622 100.206 3.20388C100.058 3.79428 99.7537 4.2 99.4004 4.2C99.0477 4.2 98.743 3.79434 98.5952 3.20388C98.0039 3.05616 97.5976 2.75244 97.5976 2.4C97.5976 2.04756 98.0039 1.74322 98.5952 1.59551C98.743 1.00536 99.0477 0.6 99.4004 0.6Z" fill="var(--fill-0, #222222)"/>
</g>
</svg>
