<svg preserveAspectRatio="none" width="100%" height="100%" overflow="visible" style="display: block;" viewBox="0 0 24.0367 24" fill="none" xmlns="http://www.w3.org/2000/svg">
<g id="logomark">
<path id="Vector" fill-rule="evenodd" clip-rule="evenodd" d="M12.0183 0C10.4513 1.19763e-07 9.08485 0.873408 8.13294 2.18027C8.07507 2.25974 8.01834 2.34116 7.96336 2.42402C7.90567 2.41234 7.84828 2.40017 7.79077 2.39004C6.19666 2.10917 4.6145 2.42213 3.51983 3.51504C2.42538 4.60805 2.1118 6.18786 2.39311 7.77948C2.40326 7.8369 2.41603 7.8942 2.42773 7.95174C2.34477 8.00664 2.26316 8.06274 2.18361 8.12052C0.87478 9.07098 6.82318e-05 10.4354 0 12C6.8239e-05 13.5646 0.87478 14.929 2.18361 15.8795C2.26314 15.9373 2.3448 15.9934 2.42773 16.0483C2.41599 16.106 2.40329 16.1635 2.39311 16.2211C2.1119 17.8127 2.42581 19.3926 3.52041 20.4856C4.61501 21.5782 6.1969 21.8913 7.79077 21.6106C7.84834 21.6004 7.90561 21.5876 7.96336 21.576C8.0184 21.6589 8.07501 21.7402 8.13294 21.8197C9.08485 23.1266 10.4513 24 12.0183 24C13.5854 24 14.9518 23.1266 15.9038 21.8197C15.9617 21.7401 16.0188 21.659 16.0739 21.576C16.1314 21.5876 16.1886 21.6004 16.2459 21.6106C17.8399 21.8913 19.4217 21.5778 20.5163 20.485C21.6107 19.3921 21.9242 17.8126 21.643 16.2211C21.6328 16.1638 21.6206 16.1063 21.609 16.0488C21.692 15.9939 21.7735 15.9373 21.8531 15.8795C23.1619 14.929 24.0366 13.5646 24.0367 12C24.0366 10.4354 23.1619 9.07098 21.8531 8.12052C21.7733 8.06256 21.6916 8.00622 21.6084 7.9512C21.62 7.89366 21.6322 7.83624 21.6424 7.77888C21.9237 6.18726 21.6108 4.60745 20.5163 3.51445C19.4216 2.42159 17.8394 2.10916 16.2453 2.39004C16.1882 2.40011 16.1313 2.41243 16.0739 2.42402C16.0189 2.34106 15.9617 2.25983 15.9038 2.18027C14.9518 0.873408 13.5854 2.12901e-07 12.0183 0ZM12.0183 19.4613C12.8986 20.2459 13.8698 20.8381 14.8528 21.2168C14.0749 22.2334 13.0709 22.8 12.0183 22.8C10.9658 22.8 9.96177 22.2334 9.18394 21.2168C10.1669 20.8381 11.1382 20.2459 12.0183 19.4613ZM20.4946 16.6547C20.6596 17.884 20.3653 18.9387 19.6665 19.6365C18.9677 20.3342 17.9118 20.6274 16.6807 20.4627C17.0876 19.5425 17.3421 18.4943 17.4084 17.3813C18.5233 17.3149 19.5729 17.0611 20.4946 16.6547ZM3.54272 16.6547C4.4644 17.061 5.51396 17.315 6.62884 17.3813C6.69524 18.4944 6.94961 19.5424 7.35655 20.4627C6.12533 20.6275 5.06911 20.3347 4.37015 19.6371C3.67118 18.9392 3.37757 17.8843 3.54272 16.6547ZM15.9137 14.5471C16.0603 15.0575 16.1601 15.6043 16.2019 16.1771C15.8428 16.151 15.494 16.1018 15.1579 16.033C15.0124 16.4082 14.8381 16.7805 14.6368 17.1463C15.1392 17.2651 15.6641 17.3446 16.2048 17.3789C16.1346 18.4144 15.8783 19.3664 15.49 20.1733C14.6033 19.8637 13.6985 19.3399 12.8681 18.6106C13.2788 18.1476 13.6356 17.6593 13.9367 17.158C14.1845 16.7455 14.3953 16.3241 14.5652 15.9H14.6086C14.5957 15.8964 14.5828 15.8931 14.5699 15.8894C14.7047 15.5512 14.813 15.211 14.8962 14.8729C15.2347 14.7898 15.5751 14.6817 15.9137 14.5471ZM15.49 3.82617C15.8784 4.6331 16.1346 5.58543 16.2048 6.62112C15.4648 6.66804 14.7543 6.79842 14.091 7.0008C13.6412 7.13802 13.2134 7.30872 12.8129 7.50876C12.5493 7.6407 12.2976 7.78524 12.0595 7.94178C12.1513 10.1216 13.9001 11.8676 16.0833 11.959C16.2593 11.6924 16.4206 11.409 16.5651 11.1106C16.9822 11.3602 17.3924 11.6572 17.7863 12C17.5534 12.2027 17.3135 12.3877 17.071 12.5578C17.2497 12.9182 17.4059 13.2978 17.5369 13.6934C17.9153 13.4434 18.2847 13.1614 18.639 12.8479C19.3696 13.6769 19.8945 14.5805 20.2046 15.4658C19.3966 15.8536 18.4432 16.1093 17.4061 16.1795C17.3662 15.5543 17.2662 14.9501 17.1138 14.3777C16.9654 13.8206 16.7665 13.2938 16.524 12.8074C16.3901 12.5389 16.243 12.2825 16.0833 12.0404C13.9003 12.1318 12.1516 13.8781 12.0595 16.0576C12.3265 16.2333 12.6101 16.3949 12.9091 16.5392C12.659 16.9558 12.3618 17.3657 12.0183 17.7592C11.8152 17.5265 11.6302 17.2865 11.4597 17.0443C11.0987 17.2228 10.7186 17.3787 10.3224 17.5096C10.5728 17.8875 10.855 18.2566 11.1692 18.6106C10.3388 19.34 9.43386 19.8634 8.54721 20.1733C8.15896 19.3664 7.90267 18.4145 7.83248 17.3789C8.5808 17.3314 9.2989 17.1985 9.96856 16.9922C10.4004 16.8592 10.8118 16.6952 11.198 16.5041C11.4713 16.3687 11.7318 16.2194 11.9778 16.0576C11.8857 13.8785 10.137 12.1324 7.95452 12.0404C7.77846 12.3072 7.61681 12.5908 7.47217 12.8894C7.05477 12.6397 6.64398 12.343 6.24978 12C6.48312 11.797 6.72337 11.6115 6.96632 11.441C6.78766 11.0807 6.6313 10.7015 6.50036 10.3061C6.12179 10.556 5.75223 10.8379 5.39769 11.1515C4.6674 10.3226 4.14279 9.4194 3.83261 8.53416C4.64075 8.14644 5.59404 7.89 6.63124 7.81992C6.67824 8.55894 6.8087 9.26868 7.01151 9.93108C7.14455 10.3659 7.30992 10.7798 7.50209 11.1686C7.63916 11.4457 7.79023 11.7097 7.95452 11.959C10.1372 11.867 11.886 10.1212 11.9778 7.94178C11.7107 7.76598 11.4267 7.60458 11.1275 7.46016C11.3776 7.04358 11.6749 6.63372 12.0183 6.24024C12.2216 6.4731 12.4075 6.71274 12.5782 6.95508C12.939 6.77676 13.3189 6.62058 13.7149 6.48984C13.4645 6.11178 13.1817 5.74288 12.8675 5.38887C13.698 4.65946 14.6032 4.13582 15.49 3.82617ZM5.39711 12.8479C5.84852 13.2473 6.32382 13.5958 6.81194 13.8914C7.23805 14.1496 7.67372 14.3677 8.11239 14.543V14.5863C8.11593 14.5737 8.11936 14.5609 8.12296 14.5483C8.46152 14.6828 8.80206 14.7904 9.1405 14.8735C9.22372 15.2114 9.33207 15.5514 9.46679 15.8894C8.95583 16.0357 8.40876 16.1354 7.83542 16.1771C7.86162 15.8184 7.91096 15.4699 7.97976 15.1342C7.60377 14.9888 7.23072 14.815 6.86422 14.6138C6.74524 15.1154 6.66562 15.6396 6.63124 16.1795C5.59423 16.1094 4.64124 15.8534 3.8332 15.4658C4.14334 14.5806 4.66679 13.6768 5.39711 12.8479ZM21.2492 9.16932C22.2675 9.94596 22.8348 10.949 22.8349 12C22.8348 13.0507 22.2676 14.0535 21.2498 14.8301C20.8705 13.8485 20.2771 12.8784 19.4911 11.9994C20.2768 11.1205 20.87 10.1508 21.2492 9.16932ZM2.78746 9.16992C3.16668 10.1513 3.75936 11.1212 4.54503 12C3.7593 12.8788 3.16616 13.8487 2.78687 14.8301C1.76912 14.0535 1.2019 13.0507 1.20183 12C1.2019 10.9491 1.76942 9.94656 2.78746 9.16992ZM17.4061 7.81992C18.443 7.89006 19.3961 8.14656 20.2041 8.53416C19.8938 9.41928 19.3693 10.3226 18.639 11.1515C18.1909 10.7551 17.7196 10.4081 17.2353 10.1138C16.806 9.85308 16.3664 9.6336 15.9243 9.45702V9.4137C15.9207 9.42648 15.9174 9.43956 15.9137 9.45234C15.5754 9.31788 15.2351 9.20964 14.8967 9.12654C14.8136 8.78856 14.7047 8.44866 14.5699 8.11056C15.081 7.96428 15.6284 7.86462 16.2019 7.82286C16.1757 8.18136 16.1269 8.52972 16.0581 8.86524C16.4341 9.01062 16.8071 9.18492 17.1737 9.38616C17.2927 8.88444 17.3717 8.35992 17.4061 7.81992ZM8.54721 3.82676C9.43362 4.13653 10.3385 4.65975 11.1686 5.38887C10.7715 5.83632 10.4246 6.30732 10.1299 6.79104C9.86869 7.21968 9.64839 7.65852 9.47148 8.1H9.42984C9.44192 8.10342 9.45417 8.10654 9.46619 8.10996C9.33135 8.44818 9.22318 8.78844 9.13995 9.12654C8.80176 9.20958 8.46182 9.31794 8.12356 9.45234C7.97706 8.94198 7.87725 8.3955 7.83542 7.82286C8.19465 7.84902 8.54372 7.89708 8.87994 7.96584C9.02554 7.5906 9.19969 7.2183 9.40105 6.85254C8.89857 6.73386 8.3733 6.65544 7.83248 6.62112C7.90273 5.58555 8.15896 4.63363 8.54721 3.82676ZM16.6801 3.53672C17.9115 3.37194 18.9677 3.66565 19.6665 4.36348C20.3652 5.06126 20.6595 6.11556 20.4946 7.34472C19.573 6.9384 18.5232 6.68508 17.4084 6.61872C17.342 5.5054 17.0872 4.45708 16.6801 3.53672ZM4.36956 4.36348C5.06865 3.66554 6.12545 3.37167 7.35715 3.53672C6.95003 4.45712 6.6953 5.50532 6.62884 6.61872C5.51407 6.68502 4.46434 6.93846 3.54272 7.34472C3.37782 6.11562 3.67096 5.06123 4.36956 4.36348ZM12.0183 1.2C13.0707 1.2 14.0749 1.76638 14.8528 2.78262C13.8698 3.16124 12.8986 3.75355 12.0183 4.53809C11.1382 3.75365 10.1668 3.16186 9.18394 2.7832C9.96177 1.76673 10.9658 1.2 12.0183 1.2Z" fill="var(--fill-0, #2C4CFD)"/>
</g>
</svg>
