<svg preserveAspectRatio="none" width="100%" height="100%" overflow="visible" style="display: block;" viewBox="0 0 16 16" fill="none" xmlns="http://www.w3.org/2000/svg">
<g id="mic-01">
<path id="Vector" d="M11.3333 4.66667V7.33333C11.3333 9.17427 9.84093 10.6667 8 10.6667C6.15905 10.6667 4.66667 9.17427 4.66667 7.33333V4.66667C4.66667 2.82572 6.15905 1.33333 8 1.33333C9.84093 1.33333 11.3333 2.82572 11.3333 4.66667Z" stroke="var(--stroke-0, #A4A4A4)" stroke-width="1.25"/>
<path id="Vector_2" d="M11.3333 4.66667H9.33333M11.3333 7.33333H9.33333" stroke="var(--stroke-0, #A4A4A4)" stroke-width="1.25" stroke-linecap="round"/>
<path id="Vector_3" d="M13.3333 7.33333C13.3333 10.2789 10.9455 12.6667 8 12.6667M8 12.6667C5.05448 12.6667 2.66667 10.2789 2.66667 7.33333M8 12.6667V14.6667M8 14.6667H10M8 14.6667H6" stroke="var(--stroke-0, #A4A4A4)" stroke-width="1.25" stroke-linecap="round"/>
</g>
</svg>
