<svg preserveAspectRatio="none" width="100%" height="100%" overflow="visible" style="display: block;" viewBox="0 0 22 22" fill="none" xmlns="http://www.w3.org/2000/svg">
<g id="Send">
<path id="Vector" d="M3.13287 9.28926C2.56052 9.5295 2.20527 9.95717 2.1999 10.5626C2.19621 10.9859 2.48185 11.5544 3.0542 11.7867C3.28995 11.8826 6.60006 12.3279 6.60006 12.3279C6.60006 12.3279 7.47619 15.0972 7.79193 16.0705C7.88336 16.3521 7.93546 16.4903 8.1361 16.6742C8.47648 16.9857 9.05191 16.8881 9.30077 16.6381C9.95919 15.9781 10.9999 14.96 10.9999 14.96L11.4378 15.3164C11.4378 15.3164 13.3827 16.8678 14.4459 17.5982C15.0718 18.0285 15.5063 18.4773 16.2108 18.48C16.5696 18.4817 17.1452 18.3031 17.5258 17.8675C17.7772 17.5797 17.9385 17.1195 18.0009 16.7068C18.1427 15.7696 19.8069 5.63552 19.7998 5.28088C19.7886 4.71504 19.3126 4.39648 18.9169 4.4C18.6684 4.40264 18.4637 4.47481 18.008 4.61385C14.4833 5.69008 3.36634 9.19158 3.13287 9.28926ZM16.2799 7.03999C16.2799 7.03999 11.6352 11.0827 9.77923 12.943C9.18461 13.5388 9.14264 14.5613 9.14264 14.5613L8.18327 11.4919L16.2799 7.03999Z" fill="var(--fill-0, white)"/>
</g>
</svg>
