<svg preserveAspectRatio="none" width="100%" height="100%" overflow="visible" style="display: block;" viewBox="0 0 10.8333 10.8333" fill="none" xmlns="http://www.w3.org/2000/svg">
<path id="Subtract" fill-rule="evenodd" clip-rule="evenodd" d="M4.11255 0.650147C3.98064 0.76256 3.91468 0.818771 3.84424 0.865983C3.68277 0.97421 3.50143 1.04932 3.31072 1.08697C3.22753 1.1034 3.14114 1.11029 2.96838 1.12408C2.53429 1.15872 2.31725 1.17604 2.13617 1.24C1.71736 1.38793 1.38793 1.71736 1.24 2.13617C1.17604 2.31725 1.15872 2.53429 1.12408 2.96838C1.11029 3.14114 1.1034 3.22753 1.08697 3.31072C1.04932 3.50143 0.97421 3.68277 0.865983 3.84424C0.81877 3.91468 0.762563 3.98064 0.650147 4.11255C0.367702 4.44399 0.226473 4.60971 0.143658 4.78297C-0.0478862 5.18372 -0.0478862 5.64961 0.143658 6.05036C0.226474 6.22362 0.367698 6.38934 0.650147 6.72078C0.76255 6.85268 0.818773 6.91865 0.865983 6.98909C0.97421 7.15056 1.04932 7.33191 1.08697 7.52261C1.1034 7.60581 1.11029 7.69219 1.12408 7.86496C1.15872 8.29904 1.17604 8.51608 1.24 8.69716C1.38793 9.11597 1.71736 9.4454 2.13617 9.59333C2.31725 9.65729 2.53429 9.67461 2.96838 9.70925C3.14114 9.72304 3.22753 9.72993 3.31072 9.74636C3.50143 9.78401 3.68277 9.85912 3.84424 9.96735C3.91468 10.0146 3.98064 10.0708 4.11255 10.1832C4.44399 10.4656 4.60971 10.6069 4.78297 10.6897C5.18372 10.8812 5.64961 10.8812 6.05036 10.6897C6.22362 10.6069 6.38934 10.4656 6.72078 10.1832C6.85269 10.0708 6.91865 10.0146 6.98909 9.96735C7.15056 9.85912 7.33191 9.78401 7.52261 9.74636C7.60581 9.72993 7.69219 9.72304 7.86496 9.70925C8.29904 9.67461 8.51608 9.65729 8.69716 9.59333C9.11597 9.4454 9.4454 9.11597 9.59333 8.69716C9.65729 8.51608 9.67461 8.29904 9.70925 7.86496C9.72304 7.69219 9.72993 7.60581 9.74636 7.52261C9.78401 7.33191 9.85912 7.15056 9.96735 6.98909C10.0146 6.91865 10.0708 6.85269 10.1832 6.72078C10.4656 6.38934 10.6069 6.22362 10.6897 6.05036C10.8812 5.64961 10.8812 5.18372 10.6897 4.78297C10.6069 4.60971 10.4656 4.44399 10.1832 4.11255C10.0708 3.98064 10.0146 3.91468 9.96735 3.84424C9.85912 3.68277 9.78401 3.50143 9.74636 3.31072C9.72993 3.22753 9.72304 3.14114 9.70925 2.96838C9.67461 2.53429 9.65729 2.31725 9.59333 2.13617C9.4454 1.71736 9.11597 1.38793 8.69716 1.24C8.51608 1.17604 8.29904 1.15872 7.86496 1.12408C7.69219 1.11029 7.60581 1.1034 7.52261 1.08697C7.33191 1.04932 7.15056 0.97421 6.98909 0.865983C6.91865 0.81877 6.85269 0.762563 6.72078 0.650147C6.38934 0.367698 6.22362 0.226474 6.05036 0.143658C5.64961 -0.0478862 5.18372 -0.0478862 4.78297 0.143658C4.60971 0.226473 4.44399 0.367701 4.11255 0.650147ZM7.78564 4.2592C7.9578 4.08704 7.9578 3.80791 7.78564 3.63576C7.61348 3.4636 7.33435 3.4636 7.16219 3.63576L4.53498 6.26297L3.67112 5.39912C3.49896 5.22696 3.21984 5.22696 3.04768 5.39912C2.87552 5.57128 2.87552 5.8504 3.04768 6.02256L4.22326 7.19814C4.39541 7.3703 4.67454 7.3703 4.8467 7.19814L7.78564 4.2592Z" fill="var(--fill-0, #1D4ED8)"/>
</svg>
