<svg preserveAspectRatio="none" width="100%" height="100%" overflow="visible" style="display: block;" viewBox="0 0 18 18" fill="none" xmlns="http://www.w3.org/2000/svg">
<g id="ai-video">
<path id="Vector" d="M10.8398 9.6711C10.7262 10.1411 10.1893 10.4733 9.11542 11.1376C8.07727 11.7798 7.55827 12.1009 7.13995 11.9719C6.967 11.9185 6.80944 11.8171 6.68236 11.6775C6.375 11.3398 6.375 10.6849 6.375 9.375C6.375 8.06512 6.375 7.41013 6.68236 7.07246C6.80944 6.93286 6.967 6.83151 7.13995 6.77815C7.55827 6.64908 8.07727 6.97018 9.11542 7.61235C10.1893 8.2767 10.7262 8.60887 10.8398 9.0789C10.8867 9.27292 10.8867 9.47707 10.8398 9.6711Z" stroke="var(--stroke-0, #8796AF)" stroke-width="1.125" stroke-linejoin="round"/>
<path id="Vector_2" d="M15.7483 8.25C15.75 8.60257 15.75 8.97697 15.75 9.375C15.75 12.7337 15.75 14.4131 14.7066 15.4566C13.6631 16.5 11.9837 16.5 8.625 16.5C5.26624 16.5 3.58687 16.5 2.54343 15.4566C1.5 14.4131 1.5 12.7337 1.5 9.375C1.5 6.01624 1.5 4.33687 2.54343 3.29343C3.58687 2.25 5.26624 2.25 8.625 2.25C9.02302 2.25 9.39742 2.25 9.75 2.25173" stroke="var(--stroke-0, #8796AF)" stroke-width="1.125" stroke-linecap="round"/>
<path id="Vector_3" d="M13.875 1.5L14.0684 2.02277C14.3221 2.70826 14.4489 3.05101 14.6989 3.30104C14.949 3.55108 15.2917 3.6779 15.9772 3.93156L16.5 4.125L15.9772 4.31844C15.2917 4.5721 14.949 4.69893 14.6989 4.94896C14.4489 5.19898 14.3221 5.54173 14.0684 6.22723L13.875 6.75L13.6816 6.22723C13.4279 5.54173 13.3011 5.19898 13.051 4.94896C12.801 4.69893 12.4582 4.5721 11.7727 4.31844L11.25 4.125L11.7727 3.93156C12.4582 3.6779 12.801 3.55108 13.051 3.30104C13.3011 3.05101 13.4279 2.70826 13.6816 2.02277L13.875 1.5Z" stroke="var(--stroke-0, #8796AF)" stroke-width="1.125" stroke-linejoin="round"/>
</g>
</svg>
