<svg preserveAspectRatio="none" width="100%" height="100%" overflow="visible" style="display: block;" viewBox="0 0 18 18" fill="none" xmlns="http://www.w3.org/2000/svg">
<g id="ai-browser">
<path id="Vector" d="M15.7483 9.75C15.75 9.39742 15.75 9.02302 15.75 8.625C15.75 5.26624 15.75 3.58687 14.7066 2.54343C13.6631 1.5 11.9837 1.5 8.625 1.5C5.26624 1.5 3.58687 1.5 2.54343 2.54343C1.5 3.58687 1.5 5.26624 1.5 8.625C1.5 11.9837 1.5 13.6631 2.54343 14.7066C3.58687 15.75 5.26624 15.75 8.625 15.75C9.02302 15.75 9.39742 15.75 9.75 15.7483" stroke="var(--stroke-0, #8796AF)" stroke-width="1.125" stroke-linecap="round"/>
<path id="Vector_2" d="M13.875 11.25L14.0684 11.7727C14.3221 12.4582 14.4489 12.801 14.6989 13.051C14.949 13.3011 15.2917 13.4279 15.9772 13.6816L16.5 13.875L15.9772 14.0684C15.2917 14.3221 14.949 14.4489 14.6989 14.6989C14.4489 14.949 14.3221 15.2917 14.0684 15.9772L13.875 16.5L13.6816 15.9772C13.4279 15.2917 13.3011 14.949 13.051 14.6989C12.801 14.4489 12.4582 14.3221 11.7727 14.0684L11.25 13.875L11.7727 13.6816C12.4582 13.4279 12.801 13.3011 13.051 13.051C13.3011 12.801 13.4279 12.4582 13.6816 11.7727L13.875 11.25Z" stroke="var(--stroke-0, #8796AF)" stroke-width="1.125" stroke-linejoin="round"/>
<path id="Vector_3" d="M1.5 6.75H15.75" stroke="var(--stroke-0, #8796AF)" stroke-width="1.125" stroke-linejoin="round"/>
<path id="Vector_4" d="M4.875 4.125H4.88173" stroke="var(--stroke-0, #8796AF)" stroke-width="1.5" stroke-linecap="round" stroke-linejoin="round"/>
<path id="Vector_5" d="M7.875 4.125H7.88175" stroke="var(--stroke-0, #8796AF)" stroke-width="1.5" stroke-linecap="round" stroke-linejoin="round"/>
</g>
</svg>
